<svg width="24" height="22" viewBox="0 0 24 22" fill="none" xmlns="http://www.w3.org/2000/svg">
<path d="M8.875 8.91667C8.875 12.9437 12 16.2083 12 16.2083C12 16.2083 15.125 12.9437 15.125 8.91667C15.125 4.88959 12 1.625 12 1.625C12 1.625 8.875 4.88959 8.875 8.91667Z" stroke="#22C55E" stroke-width="1.6" stroke-linecap="round" stroke-linejoin="round"/>
<path d="M6.09539 6.83335C3.78627 5.8398 1.58398 5.79169 1.58398 5.79169C1.58398 5.79169 1.68369 10.3557 4.56018 13.2322C7.43666 16.1086 12.0007 16.2084 12.0007 16.2084C12.0007 16.2084 16.5646 16.1086 19.4411 13.2322C22.3176 10.3557 22.4173 5.79169 22.4173 5.79169C22.4173 5.79169 20.215 5.8398 17.9059 6.83335" stroke="#22C55E" stroke-width="1.6" stroke-linecap="round" stroke-linejoin="round"/>
<path d="M12.0222 16.2083C11.849 17.5972 12.6886 20.375 15.6605 20.375C17.7395 20.375 18.779 18.2916 22.4173 20.375C22.0006 18.2916 21.1671 16.9582 19.9516 16.2083M11.9791 16.2083C12.1523 17.5972 11.3127 20.375 8.3408 20.375C6.26178 20.375 5.22227 18.2916 1.58398 20.375C2.0007 18.2916 2.83417 16.9582 4.04968 16.2083" stroke="#22C55E" stroke-width="1.6" stroke-linecap="round" stroke-linejoin="round"/>
</svg>
